<svg width="20" height="20" viewBox="0 0 20 20" fill="none" xmlns="http://www.w3.org/2000/svg">
<path d="M10 13.3333C11.841 13.3333 13.3333 11.8409 13.3333 9.99996C13.3333 8.15901 11.841 6.66663 10 6.66663C8.15906 6.66663 6.66667 8.15901 6.66667 9.99996C6.66667 11.8409 8.15906 13.3333 10 13.3333Z" stroke="white" stroke-width="1.75" stroke-linecap="round" stroke-linejoin="round"/>
<path d="M15.9726 6.6167L15.9178 6.52182C15.7666 6.26014 15.6895 5.96229 15.6945 5.66013L15.7195 4.17778C15.7246 3.87484 15.5649 3.593 15.3023 3.44173L13.0218 2.12756C12.7599 1.97666 12.4369 1.97937 12.1776 2.13462L10.9117 2.89261C10.653 3.04753 10.3571 3.12935 10.0555 3.12935H9.94576C9.64354 3.12935 9.34701 3.04717 9.0879 2.89162L7.81618 2.12814C7.55597 1.97193 7.23142 1.96953 6.96894 2.12187L4.69562 3.44128C4.43437 3.59291 4.27563 3.87403 4.28071 4.17604L4.30568 5.66013C4.31076 5.96229 4.2336 6.26014 4.08244 6.52182L4.02837 6.61543C3.87713 6.87726 3.65751 7.093 3.39304 7.23956L2.0973 7.95762C1.83172 8.1048 1.6672 8.38478 1.66789 8.68841L1.67386 11.3149C1.67455 11.6167 1.83834 11.8946 2.10207 12.0413L3.39159 12.7586C3.65696 12.9063 3.87696 13.1236 4.02782 13.3871L4.08575 13.4884C4.23478 13.7487 4.31078 14.0445 4.30571 14.3444L4.28077 15.8221C4.27565 16.125 4.43538 16.4069 4.69791 16.5582L6.97844 17.8723C7.24029 18.0232 7.56332 18.0205 7.82261 17.8652L9.08851 17.1073C9.34724 16.9523 9.64315 16.8705 9.94472 16.8705H10.0545C10.3567 16.8705 10.6532 16.9527 10.9123 17.1083L12.184 17.8717C12.4442 18.0279 12.7688 18.0303 13.0313 17.878L15.3046 16.5586C15.5658 16.407 15.7246 16.1258 15.7195 15.8238L15.6945 14.3397C15.6895 14.0376 15.7666 13.7397 15.9178 13.478L15.9719 13.3844C16.1231 13.1226 16.3427 12.9069 16.6072 12.7603L17.9029 12.0422C18.1685 11.8951 18.333 11.6151 18.3323 11.3115L18.3264 8.68494C18.3257 8.38315 18.1619 8.10532 17.8982 7.9586L16.6055 7.23951C16.3421 7.09297 16.1234 6.87772 15.9726 6.6167Z" stroke="white" stroke-width="1.75" stroke-linecap="round" stroke-linejoin="round"/>
</svg>
