<svg width="20" height="20" viewBox="0 0 20 20" fill="none" xmlns="http://www.w3.org/2000/svg">
<path d="M9.99994 20C4.4852 20 0 15.5147 0 10C0 4.48527 4.4852 0 9.99994 0C15.5147 0 20 4.48527 20 10C20 15.5147 15.5147 20 9.99994 20ZM9.99994 1.99385C5.58683 1.99385 1.99378 5.58681 1.99378 10C1.99378 14.4132 5.58683 18.0062 9.99994 18.0062C14.4132 18.0062 18.0061 14.4132 18.0061 10C18.0061 5.58681 14.4132 1.99385 9.99994 1.99385Z" fill="#6069AC"/>
<path d="M15.0753 12.4024C15.0753 11.4381 12.8035 12.9583 9.99979 12.9583C7.19616 12.9583 4.92432 11.4381 4.92432 12.4024C4.92432 13.3666 7.19616 15.4394 9.99979 15.4394C12.8035 15.4394 15.0753 13.3666 15.0753 12.4024Z" fill="#6069AC"/>
<path d="M15.6248 7.97531C15.6248 7.40564 14.1422 6.96641 12.0593 6.71938C11.3935 6.64037 11.2425 6.38993 11.1155 5.97125C10.8169 5.00004 10.4841 4.50586 10.0482 4.50586C9.61248 4.50586 9.30358 4.99322 8.98447 5.96432C8.84719 6.3796 8.69619 6.64377 8.03383 6.71246C5.89937 6.93553 4.37219 7.39542 4.37219 7.97531C4.37219 8.55531 5.89586 9.04949 8.03383 9.23817C8.4697 9.27597 8.85059 9.56762 8.98447 9.9863C9.23148 10.755 9.61588 11.2492 10.0482 11.2492C10.4806 11.2492 10.8684 10.7516 11.1155 9.97597C11.2494 9.56081 11.6234 9.26905 12.0593 9.22795C14.1458 9.03234 15.6248 8.54498 15.6248 7.97191V7.97531Z" fill="#6069AC"/>
</svg>
